<svg width="16" height="16" viewBox="0 0 16 16" fill="none" xmlns="http://www.w3.org/2000/svg">
<path d="M0.999983 14.4998C0.929427 14.5002 0.859579 14.4857 0.79503 14.4572C0.730482 14.4287 0.672695 14.3869 0.625468 14.3344C0.578241 14.282 0.542644 14.2202 0.521016 14.153C0.499389 14.0859 0.492221 14.0149 0.499984 13.9448L0.884984 10.4448C0.898689 10.3329 0.949785 10.2289 1.02998 10.1498L9.20998 1.96976C9.3586 1.82085 9.53512 1.70271 9.72945 1.6221C9.92378 1.54149 10.1321 1.5 10.3425 1.5C10.5529 1.5 10.7612 1.54149 10.9555 1.6221C11.1498 1.70271 11.3264 1.82085 11.475 1.96976L13.03 3.52476C13.1789 3.67337 13.297 3.8499 13.3776 4.04423C13.4583 4.23856 13.4997 4.44688 13.4997 4.65726C13.4997 4.86764 13.4583 5.07596 13.3776 5.27029C13.297 5.46462 13.1789 5.64114 13.03 5.78976L4.85498 13.9648C4.7758 14.045 4.67185 14.0961 4.55998 14.1098L1.05998 14.4948L0.999983 14.4998ZM1.86498 10.7248L1.56498 13.4348L4.27498 13.1348L12.325 5.08476C12.3809 5.02902 12.4253 4.96278 12.4556 4.88985C12.4859 4.81692 12.5015 4.73873 12.5015 4.65976C12.5015 4.58079 12.4859 4.5026 12.4556 4.42967C12.4253 4.35674 12.3809 4.2905 12.325 4.23476L10.765 2.67476C10.7092 2.61882 10.643 2.57444 10.5701 2.54416C10.4971 2.51387 10.419 2.49829 10.34 2.49829C10.261 2.49829 10.1828 2.51387 10.1099 2.54416C10.037 2.57444 9.97073 2.61882 9.91498 2.67476L1.86498 10.7248Z" fill="#0047BA"/>
<path d="M11.4995 7.10435C11.4337 7.10473 11.3685 7.09212 11.3075 7.06724C11.2466 7.04235 11.1912 7.00569 11.1445 6.95935L8.0395 3.84435C7.99288 3.79773 7.9559 3.74239 7.93067 3.68148C7.90544 3.62056 7.89246 3.55528 7.89246 3.48935C7.89246 3.42342 7.90544 3.35814 7.93067 3.29723C7.9559 3.23631 7.99288 3.18097 8.0395 3.13435C8.08612 3.08773 8.14147 3.05075 8.20238 3.02552C8.26329 3.00029 8.32857 2.9873 8.3945 2.9873C8.46043 2.9873 8.52572 3.00029 8.58663 3.02552C8.64754 3.05075 8.70288 3.08773 8.7495 3.13435L11.8645 6.24935C11.9114 6.29583 11.9486 6.35113 11.9739 6.41206C11.9993 6.47299 12.0124 6.53834 12.0124 6.60435C12.0124 6.67036 11.9993 6.73571 11.9739 6.79664C11.9486 6.85757 11.9114 6.91287 11.8645 6.95935C11.8166 7.00691 11.7596 7.04427 11.6968 7.06919C11.6341 7.09411 11.567 7.10607 11.4995 7.10435Z" fill="#0047BA"/>
<path d="M8.04289 6.25191L4.15027 10.1445L4.85738 10.8516L8.75 6.95902L8.04289 6.25191Z" fill="#0047BA"/>
<path d="M15 14.5H7C6.86739 14.5 6.74021 14.4473 6.64645 14.3536C6.55268 14.2598 6.5 14.1326 6.5 14C6.5 13.8674 6.55268 13.7402 6.64645 13.6464C6.74021 13.5527 6.86739 13.5 7 13.5H15C15.1326 13.5 15.2598 13.5527 15.3536 13.6464C15.4473 13.7402 15.5 13.8674 15.5 14C15.5 14.1326 15.4473 14.2598 15.3536 14.3536C15.2598 14.4473 15.1326 14.5 15 14.5Z" fill="#0047BA"/>
</svg>
