<svg width="29" height="14" viewBox="0 0 29 14" fill="none" xmlns="http://www.w3.org/2000/svg">
<path d="M19 7.47869C19 9.84615 17.0972 11.7654 14.75 11.7654C12.4028 11.7654 10.5 9.84615 10.5 7.47869C10.5 5.11123 12.4028 3.19202 14.75 3.19202C17.0972 3.19202 19 5.11123 19 7.47869Z" fill="black"/>
<ellipse cx="13" cy="5.71358" rx="1" ry="1.00863" fill="#FFFDFD"/>
<path d="M19 7.47869C19 9.84615 17.0972 11.7654 14.75 11.7654C12.4028 11.7654 10.5 9.84615 10.5 7.47869C10.5 5.11123 12.4028 3.19202 14.75 3.19202C17.0972 3.19202 19 5.11123 19 7.47869Z" fill="black"/>
<ellipse cx="13" cy="5.71358" rx="1" ry="1.00863" fill="#FFFDFD"/>
<path d="M1 7.47874C5.41667 2.85586 17 -3.61618 28 7.47874" stroke="black"/>
<path d="M28 7.22658C23.5833 11.8495 12 18.3215 1 7.22658" stroke="black"/>
</svg>
