<svg width="29" height="17" viewBox="0 0 29 17" fill="none" xmlns="http://www.w3.org/2000/svg">
<path d="M19 8.34288C19 10.6269 17.0972 12.4785 14.75 12.4785C12.4028 12.4785 10.5 10.6269 10.5 8.34288C10.5 6.05885 12.4028 4.20728 14.75 4.20728C17.0972 4.20728 19 6.05885 19 8.34288Z" fill="black"/>
<ellipse cx="13" cy="6.63995" rx="1" ry="0.973084" fill="#FFFDFD"/>
<path d="M19 8.34288C19 10.6269 17.0972 12.4785 14.75 12.4785C12.4028 12.4785 10.5 10.6269 10.5 8.34288C10.5 6.05885 12.4028 4.20728 14.75 4.20728C17.0972 4.20728 19 6.05885 19 8.34288Z" fill="black"/>
<ellipse cx="13" cy="6.63995" rx="1" ry="0.973084" fill="#FFFDFD"/>
<path d="M1 8.34293C5.41667 3.88296 17 -2.361 28 8.34293" stroke="black"/>
<path d="M28 8.09957C23.5833 12.5595 12 18.8035 1 8.09957" stroke="black"/>
<rect width="0.986634" height="23.1859" transform="matrix(-0.716686 -0.697396 0.716686 -0.697396 6.85498 17)" fill="black"/>
<rect width="0.493317" height="23.1875" transform="matrix(-0.716686 -0.697396 0.716686 -0.697396 6.35352 16.5149)" fill="white"/>
</svg>
