<svg width="16" height="16" viewBox="0 0 16 16" fill="none" xmlns="http://www.w3.org/2000/svg">
<path d="M1.00011 14.5C0.929549 14.5004 0.859701 14.4859 0.795152 14.4574C0.730604 14.4289 0.672817 14.3871 0.62559 14.3347C0.578363 14.2823 0.542766 14.2204 0.521138 14.1533C0.499511 14.0861 0.492343 14.0151 0.500106 13.945L0.885106 10.445C0.898811 10.3331 0.949907 10.2292 1.03011 10.15L9.21011 1.97C9.35872 1.82109 9.53524 1.70295 9.72957 1.62234C9.9239 1.54174 10.1322 1.50024 10.3426 1.50024C10.553 1.50024 10.7613 1.54174 10.9556 1.62234C11.15 1.70295 11.3265 1.82109 11.4751 1.97L13.0301 3.525C13.179 3.67362 13.2972 3.85014 13.3778 4.04447C13.4584 4.2388 13.4999 4.44712 13.4999 4.6575C13.4999 4.86789 13.4584 5.07621 13.3778 5.27054C13.2972 5.46486 13.179 5.64139 13.0301 5.79L4.85511 13.965C4.77592 14.0452 4.67197 14.0963 4.56011 14.11L1.06011 14.495L1.00011 14.5ZM1.86511 10.725L1.56511 13.435L4.27511 13.135L12.3251 5.085C12.381 5.02926 12.4254 4.96303 12.4557 4.89009C12.486 4.81716 12.5016 4.73897 12.5016 4.66C12.5016 4.58103 12.486 4.50284 12.4557 4.42991C12.4254 4.35698 12.381 4.29075 12.3251 4.235L10.7651 2.675C10.7094 2.61907 10.6431 2.57469 10.5702 2.5444C10.4973 2.51412 10.4191 2.49853 10.3401 2.49853C10.2611 2.49853 10.1829 2.51412 10.11 2.5444C10.0371 2.57469 9.97085 2.61907 9.91511 2.675L1.86511 10.725Z" fill="#0C2348"/>
<path d="M11.5001 7.10496C11.4343 7.10534 11.3691 7.09273 11.3082 7.06785C11.2472 7.04296 11.1918 7.0063 11.1451 6.95996L8.04011 3.84496C7.99349 3.79834 7.95651 3.743 7.93128 3.68209C7.90605 3.62117 7.89307 3.55589 7.89307 3.48996C7.89307 3.42403 7.90605 3.35875 7.93128 3.29784C7.95651 3.23693 7.99349 3.18158 8.04011 3.13496C8.08673 3.08834 8.14208 3.05136 8.20299 3.02613C8.2639 3.0009 8.32918 2.98792 8.39511 2.98792C8.46104 2.98792 8.52633 3.0009 8.58724 3.02613C8.64815 3.05136 8.70349 3.08834 8.75011 3.13496L11.8651 6.24996C11.912 6.29644 11.9492 6.35174 11.9746 6.41267C11.9999 6.4736 12.013 6.53895 12.013 6.60496C12.013 6.67097 11.9999 6.73632 11.9746 6.79725C11.9492 6.85818 11.912 6.91348 11.8651 6.95996C11.8172 7.00752 11.7602 7.04488 11.6974 7.0698C11.6347 7.09472 11.5676 7.10668 11.5001 7.10496Z" fill="#0C2348"/>
<path d="M8.04277 6.25179L4.15015 10.1444L4.85725 10.8515L8.74988 6.95889L8.04277 6.25179Z" fill="#0C2348"/>
<path d="M15 14.5H7C6.86739 14.5 6.74021 14.4473 6.64645 14.3536C6.55268 14.2598 6.5 14.1326 6.5 14C6.5 13.8674 6.55268 13.7402 6.64645 13.6464C6.74021 13.5527 6.86739 13.5 7 13.5H15C15.1326 13.5 15.2598 13.5527 15.3536 13.6464C15.4473 13.7402 15.5 13.8674 15.5 14C15.5 14.1326 15.4473 14.2598 15.3536 14.3536C15.2598 14.4473 15.1326 14.5 15 14.5Z" fill="#0C2348"/>
</svg>
